<svg width="100" height="100" viewBox="0 0 100 100" fill="none" xmlns="http://www.w3.org/2000/svg">
<rect width="100" height="100" rx="40" fill="#8FBFBF"/>
<path d="M50 56.75V61.75M37.5 45.572C38.6785 45.5 40.1315 45.5 42 45.5H58C59.8685 45.5 61.3215 45.5 62.5 45.572M37.5 45.572C36.0292 45.6618 34.9857 45.8637 34.0951 46.3175C32.6839 47.0365 31.5365 48.1837 30.8175 49.595C30 51.1995 30 53.2995 30 57.5V61C30 65.2005 30 67.3005 30.8175 68.905C31.5365 70.3162 32.6839 71.4635 34.0951 72.1825C35.6994 73 37.7996 73 42 73H58C62.2005 73 64.3005 73 65.905 72.1825C67.3162 71.4635 68.4635 70.3162 69.1825 68.905C70 67.3005 70 65.2005 70 61V57.5C70 53.2995 70 51.1995 69.1825 49.595C68.4635 48.1837 67.3162 47.0365 65.905 46.3175C65.0142 45.8637 63.9707 45.6618 62.5 45.572M37.5 45.572V40.5C37.5 33.5964 43.0964 28 50 28C56.9035 28 62.5 33.5964 62.5 40.5V45.572" stroke="white" stroke-width="5" stroke-linecap="round" stroke-linejoin="round"/>
</svg>
